# xmcd
#
# Track frame offsets:
#	150
#	19635
#	43933
#	69355
#	94140
#	123663
#	142163
#	162575
#	181795
#	200565
#	227093
#
# Disc length: 3330 seconds
#
# Revision: 1
# Processed by: cddbd v1.4PL0 Copyright (c) Steve Scherf et al.
# Submitted via: audiograbber 1.80.04
#
DISCID=9d0d000b
DTITLE=John Prestia Group - What's Done Is Done
DYEAR=1900
DGENRE=
TTITLE0=We All Fall Down
TTITLE1=Station Road
TTITLE2=Wax Yer Ride
TTITLE3=In The Back Of My Mind
TTITLE4=Who Do You Think You're Foolin'
TTITLE5=What's Done Is Done
TTITLE6=The Light
TTITLE7=Little Too Little
TTITLE8=The Taste
TTITLE9=Goodnight My Love, Good-bye
TTITLE10=Ain't Good For Love
EXTD=
EXTT0=
EXTT1=
EXTT2=
EXTT3=
EXTT4=
EXTT5=
EXTT6=
EXTT7=
EXTT8=
EXTT9=
EXTT10=
PLAYORDER=
